<?xml version="1.0" standalone="no"?>
<!DOCTYPE svg PUBLIC "-//W3C//DTD SVG 20010904//EN"
 "http://www.w3.org/TR/2001/REC-SVG-20010904/DTD/svg10.dtd">
<svg version="1.0" xmlns="http://www.w3.org/2000/svg"
 width="96.000000pt" height="96.000000pt" viewBox="0 0 96.000000 96.000000"
 preserveAspectRatio="xMidYMid meet">
<metadata>
Created by potrace 1.14, written by Peter Selinger 2001-2017
</metadata>
<g transform="translate(0.000000,96.000000) scale(0.100000,-0.100000)"
fill="#000000" stroke="none">
<path d="M0 555 l0 -405 475 0 475 0 0 405 0 405 -475 0 -475 0 0 -405z m446
334 c59 -18 119 -43 133 -55 1 -1 -16 -39 -40 -82 l-43 -80 -48 24 c-100 50
-198 53 -198 5 0 -27 15 -36 120 -70 111 -35 183 -78 204 -120 25 -48 21 -176
-7 -226 -66 -116 -299 -139 -504 -49 l-53 23 37 78 c20 43 39 82 43 86 4 4 38
-7 76 -25 84 -39 191 -51 214 -23 21 25 -11 48 -109 80 -105 33 -148 55 -184
92 -68 72 -62 196 15 279 76 82 205 106 344 63z m414 -339 l0 -360 -100 0
-100 0 0 360 0 360 100 0 100 0 0 -360z"/>
</g>
</svg>
